<svg class="icon" viewBox="0 0 1024 1024" version="1.1" xmlns="http://www.w3.org/2000/svg" width="200" height="200"><defs><style type="text/css"></style></defs><path d="M972.033629 312.785455a510.301091 510.301091 0 0 0-269.265454-272.011637 504.785455 504.785455 0 0 0-393.821091 0 505.483636 505.483636 0 0 0-160.791273 109.474909A512.139636 512.139636 0 0 0 0.001629 511.790545a511.953455 511.953455 0 0 0 308.992 470.993455 499.828364 499.828364 0 0 0 196.933818 40.122182 500.433455 500.433455 0 0 0 357.608728-149.666909c46.405818-46.545455 83.269818-101.701818 108.474181-162.397091a517.282909 517.282909 0 0 0 0.023273-398.056727z m-31.697454 198.935272c-0.139636 241.989818-195.025455 438.877091-434.408728 438.877091-239.499636 0-434.338909-196.887273-434.338909-438.877091 0-242.036364 194.839273-438.853818 434.338909-438.853818 239.499636-0.069818 434.408727 196.794182 434.408728 438.853818z m0 0"></path><path d="M306.177629 458.309818c39.424 0 71.540364-32.395636 71.540364-72.192s-32.116364-72.192-71.540364-72.192c-39.400727 0-71.354182 32.325818-71.354182 72.052364a71.633455 71.633455 0 0 0 71.354182 72.331636zM705.770356 459.706182c39.284364 0 71.284364-32.372364 71.284364-72.122182 0-39.936-32-72.308364-71.284364-72.308364-39.424 0-71.563636 32.372364-71.563636 72.308364 0 39.749818 32.139636 72.122182 71.563636 72.122182zM764.347811 797.812364a36.491636 36.491636 0 0 0 7.284364-50.408728 326.865455 326.865455 0 0 0-114.292364-96.791272 334.801455 334.801455 0 0 0-302.987636 0 326.027636 326.027636 0 0 0-114.08291 96.721454 36.212364 36.212364 0 0 0 7.284364 50.455273 36.421818 36.421818 0 0 0 50.152727-7.540364c47.848727-64.907636 125.789091-103.563636 208.244364-103.563636s160.395636 38.656 208.314182 103.68a36.375273 36.375273 0 0 0 50.082909 7.447273z"></path></svg>